<svg xmlns="http://www.w3.org/2000/svg" width="28.168" height="40.674" viewBox="0 0 28.168 40.674">
  <path id="Icon_map-beauty-salon" data-name="Icon map-beauty-salon" d="M28.739,5.52h-5.89a.79.79,0,0,0,0,1.58h5.89v.811h-5.89a.79.79,0,0,0,0,1.58h5.89v.829h-5.89a.79.79,0,0,0,0,1.58h5.89v.79h-5.89a.8.8,0,0,0,0,1.6h5.89v.791h-5.89a.79.79,0,0,0,0,1.58h5.89v.79h-5.89a.791.791,0,0,0,0,1.581h5.89v.809h-5.89a.79.79,0,0,0,0,1.58h5.89v.788h-5.89a.791.791,0,0,0,0,1.581h5.89V39.178a1.788,1.788,0,0,0,3.575,0V3.169A2.463,2.463,0,0,0,29.977.739H22.849a.79.79,0,0,0,0,1.58l5.89.019v.788h-5.89a.791.791,0,0,0,0,1.581h5.89Zm-6.3,27.28c0-2.737-2.84-5.681-6.23-3.774V18.557L14.022,1.292A.644.644,0,0,0,13.329.72c-.269.008-.807.115-.865.572L10.282,18.557V29.026c-3.39-1.907-6.135,1.056-6.136,3.753a4.3,4.3,0,0,0,4.348,4.365,4.421,4.421,0,0,0,4.33-4.365V21.9h.847V32.779A4.279,4.279,0,0,0,17.629,37.1a6.024,6.024,0,0,0,1.213,3.971,1.011,1.011,0,0,0,1.627-1.163,3.743,3.743,0,0,1-.534-3.225A4.26,4.26,0,0,0,22.444,32.8ZM8.591,34.953a2.155,2.155,0,1,1,2.14-2.153,2.154,2.154,0,0,1-2.14,2.153ZM15.854,32.8a2.14,2.14,0,1,1,2.14,2.153,2.163,2.163,0,0,1-2.14-2.153Z" transform="translate(-4.146 -0.72)"/>
</svg>
