<svg xmlns="http://www.w3.org/2000/svg" width="41.428" height="36.334" viewBox="0 0 41.428 36.334">
  <path id="Icon_awesome-camera-retro" data-name="Icon awesome-camera-retro" d="M3.884,2.25A3.889,3.889,0,0,0,0,6.143V34.691a3.889,3.889,0,0,0,3.884,3.893H37.545a3.889,3.889,0,0,0,3.884-3.893V6.143A3.889,3.889,0,0,0,37.545,2.25Zm0,2.6h8.577a.487.487,0,0,1,.485.487V6.954a.487.487,0,0,1-.485.487H3.075a.487.487,0,0,1-.485-.487V6.143A1.3,1.3,0,0,1,3.884,4.845Zm34.47,7.786H3.075a.487.487,0,0,1-.485-.487V9.225a.487.487,0,0,1,.485-.487H14.241l2.444-3.674a.482.482,0,0,1,.4-.219H37.545a1.3,1.3,0,0,1,1.295,1.3v6A.487.487,0,0,1,38.354,12.631ZM20.714,34.043a9.732,9.732,0,1,1,9.71-9.732A9.729,9.729,0,0,1,20.714,34.043Zm0-16.87a7.137,7.137,0,1,0,7.121,7.137A7.139,7.139,0,0,0,20.714,17.173ZM16.83,25.608a1.3,1.3,0,0,1-1.295-1.3,5.189,5.189,0,0,1,5.179-5.191,1.3,1.3,0,0,1,0,2.6,2.6,2.6,0,0,0-2.589,2.6A1.3,1.3,0,0,1,16.83,25.608Z" transform="translate(0 -2.25)"/>
</svg>
