<svg xmlns="http://www.w3.org/2000/svg" width="36.017" height="32.015" viewBox="0 0 36.017 32.015">
  <path id="Icon_awesome-hotel" data-name="Icon awesome-hotel" d="M35.016,4a1,1,0,0,0,1-1V1a1,1,0,0,0-1-1H1A1,1,0,0,0,0,1V3A1,1,0,0,0,1,4H2V28.013H1a1,1,0,0,0-1,1v2a1,1,0,0,0,1,1H16.008v-5a1,1,0,0,1,1-1h2a1,1,0,0,1,1,1v5H35.016a1,1,0,0,0,1-1v-2a1,1,0,0,0-1-1h-1V4ZM16.008,6.8a.861.861,0,0,1,.8-.8h2.4a.861.861,0,0,1,.8.8V9.2a.861.861,0,0,1-.8.8h-2.4a.861.861,0,0,1-.8-.8V6.8Zm0,6a.861.861,0,0,1,.8-.8h2.4a.861.861,0,0,1,.8.8v2.4a.861.861,0,0,1-.8.8h-2.4a.861.861,0,0,1-.8-.8Zm-8-6A.861.861,0,0,1,8.8,6h2.4a.861.861,0,0,1,.8.8V9.2a.861.861,0,0,1-.8.8H8.8A.861.861,0,0,1,8,9.2Zm3.2,9.2H8.8a.861.861,0,0,1-.8-.8v-2.4a.861.861,0,0,1,.8-.8h2.4a.861.861,0,0,1,.8.8v2.4A.861.861,0,0,1,11.205,16.008Zm.8,8a6,6,0,0,1,12.006,0Zm16.008-8.8a.861.861,0,0,1-.8.8h-2.4a.861.861,0,0,1-.8-.8v-2.4a.861.861,0,0,1,.8-.8h2.4a.861.861,0,0,1,.8.8Zm0-6a.861.861,0,0,1-.8.8h-2.4a.861.861,0,0,1-.8-.8V6.8a.861.861,0,0,1,.8-.8h2.4a.861.861,0,0,1,.8.8Z"/>
</svg>
